<svg xmlns="http://www.w3.org/2000/svg" fill="none" viewBox="0 0 24 24" id="Bookmarks-2--Streamline-Ultimate.svg"><desc>Bookmarks 2 Streamline Icon: https://streamlinehq.com</desc><path fill="#0d0d0d" d="M16 0.741H8a3.5 3.5 0 0 0 -3.5 3.5v18.5c0 0.55 0.318 0.681 0.707 0.293L9.5 18.741l4.293 4.293c0.389 0.388 0.707 0.257 0.707 -0.293v-16h4a1 1 0 0 0 1 -1v-1.5a3.5 3.5 0 0 0 -3.5 -3.5Z" stroke-width="1"></path><path fill="#404040" d="M16.5 2.741h2.663a3.5 3.5 0 0 0 -3.163 -2H8a3.5 3.5 0 0 0 -3.5 3.5h10.063a2 2 0 0 1 1.937 -1.5Z" stroke-width="1"></path><path stroke="#0d0d0d" stroke-linecap="round" stroke-linejoin="round" d="M16.5 6.741h2a1 1 0 0 0 1 -1v-1.5a3.5 3.5 0 0 0 -3.5 -3.5H8a3.5 3.5 0 0 0 -3.5 3.5v18.5c0 0.55 0.318 0.681 0.707 0.293L9.5 18.741l4.293 4.293c0.389 0.388 0.707 0.257 0.707 -0.293v-18a2 2 0 0 1 2 -2" stroke-width="1"></path></svg>